<svg id="Layer_1" data-name="Layer 1" xmlns="http://www.w3.org/2000/svg" viewBox="0 0 461 217"><defs><style>.cls-1{fill:#333;}</style></defs><title>puritylogo_darkgrey</title><path class="cls-1" d="M404.74,65.19s-5.57.8-3.46,7.34,3.44,10.65,2.22,12.19-21.61,15.75-26.95,38.12,6.51,33.66,10.76,40.14c5.56,8.44,13.7,26.33,15.4,34.8,0.95,4.74,2.22,5,4.24,1.9a48.92,48.92,0,0,1,4-5c4.59-5.45,37.12-26.59,38.56-55.2S437.24,96.24,427.12,88c-9.75-7.93-10.38-3-15.69-17C411.43,71,409.3,63.73,404.74,65.19Z"/><path class="cls-1" d="M175.36,8.66a162.94,162.94,0,0,0-26.34,47q-5.61,15.8-5.61,28.11-5.18,4.65-7.07,4.65c-1.13,0-1.69-.69-1.69-2.05,0-2.86,1.47-8.51,4.46-17A198.25,198.25,0,0,1,152,40.27a217.35,217.35,0,0,1,13.4-21.79l3.82-5.36a7.17,7.17,0,0,0,1-1.34l-1.5,1-5.89,3.75c-2.43,1.55-8,4.75-16.76,9.64-2.29,1.24-3.85,1.88-4.75,1.88a1.29,1.29,0,0,1-1.53-1.34l0.18-1.43A208.76,208.76,0,0,0,173.48,7.69Z"/><path class="cls-1" d="M225.51,30.27q0,19-13.75,37-14,18.29-28.47,18.3-7.24,0-11.08-5.27c-2.32-3.16-3.5-7.23-3.5-12.23q0-19.64,20.73-38.74l0.9,1.43Q172.4,47,172.4,64.54a17.69,17.69,0,0,0,3.65,11.09,12.13,12.13,0,0,0,10.09,5.17q9.11,0,18.3-8.57a56.21,56.21,0,0,0,12.42-16.68A47.82,47.82,0,0,0,222.3,34.1a20.7,20.7,0,0,0-2.5-10.53,9.88,9.88,0,0,0-8.94-5.18q-12.39,0-16.52,23l-1.69-.36q1.89-15.88,11.42-23.66a14.77,14.77,0,0,1,9.47-3.57q12,0,12,16.42"/><path class="cls-1" d="M285.76,30.27q0,19-13.75,37-14,18.29-28.47,18.3-7.24,0-11.06-5.27C230.14,77.1,229,73,229,68q0-19.64,20.71-38.74l0.89,1.43Q232.63,47,232.65,64.54a17.56,17.56,0,0,0,3.65,11.09,12.12,12.12,0,0,0,10.09,5.17q9.11,0,18.28-8.57A56.47,56.47,0,0,0,277.1,55.54a47.81,47.81,0,0,0,5.44-21.44A20.58,20.58,0,0,0,280,23.57a9.89,9.89,0,0,0-8.93-5.18q-12.38,0-16.51,23l-1.69-.36q1.86-15.88,11.42-23.66a14.71,14.71,0,0,1,9.46-3.57q12,0,12,16.42"/><path class="cls-1" d="M361.26,7.06q0,6.43-18.31,15.43a257.16,257.16,0,0,0-35.08,44.11,117.4,117.4,0,0,0-10.08,18.84,2.76,2.76,0,0,1-.72.43l-0.72.37a5.69,5.69,0,0,1-2.76,1.07,1,1,0,0,1-1-1.16q0-3.57,14.1-23.21,4.47-6.17,9.74-12.95,9.19-11.69,14.83-17.67l6.41-6.79c0.37-.41.89-1,1.62-1.79a27.77,27.77,0,0,1-7.87,1.17c-0.77,0-1.81-.05-3.12-0.17a42.63,42.63,0,0,1-9.1,13.39c-4.7,4.7-9.39,7.06-14,7.06a7.73,7.73,0,0,1-6.1-3,10.29,10.29,0,0,1-2.48-6.86,23.78,23.78,0,0,1,3.47-11.53q8-13.91,18.75-13.92h1.08a6.87,6.87,0,0,1,3.38-1.26c4.24,0,6.34,2.94,6.34,8.75a19.11,19.11,0,0,1-.89,5.53,23.21,23.21,0,0,0,2.4.19A25.74,25.74,0,0,0,342.07,21l1.43-1.34,1.78-1.78Q357,6.16,360.36,6.17a0.79,0.79,0,0,1,.9.89M326.35,24.2q-7.93-3-7.94-9.64a9.39,9.39,0,0,1,.36-2.51,6,6,0,0,0-1.16-.09Q309.32,12,303.23,23a19.45,19.45,0,0,0-2.67,9.46,8.45,8.45,0,0,0,2.19,5.86,7.07,7.07,0,0,0,5.48,2.44q5.61,0,11.25-5.62a26.59,26.59,0,0,0,6.86-11m23.58,29a28,28,0,0,1-4.1,13.93,35.25,35.25,0,0,1-9.56,11q-6,4.65-11.42,4.64a8.4,8.4,0,0,1-6.7-3,10.29,10.29,0,0,1-2.41-7q0-11,9.38-19.2a25.45,25.45,0,0,1,9.46-5.27c2.08-3.14,4.55-4.73,7.41-4.73q8,0,7.95,9.64m-3.12,2.23q0-7.93-5.71-7.94a4.8,4.8,0,0,0-3.26,1.33A4.09,4.09,0,0,0,336.36,52c0,1,.74,1.82,2.22,2.59l-0.18,1.07q-4.65,0-4.64-4.55a15.89,15.89,0,0,0-9.86,6.21A17.93,17.93,0,0,0,320,68.49a10.84,10.84,0,0,0,2.45,7,7.81,7.81,0,0,0,6.38,3q8.73,0,15.18-12.58a22.89,22.89,0,0,0,2.76-10.54M327.06,19.92q0-8.48-4.82-8.49c-1.35,0-2,1-2,2.85,0,4,2.2,6.71,6.62,8.13a20,20,0,0,0,.25-2.5"/><path class="cls-1" d="M121.4,117.73q0,13.81-11.06,29.25T82.88,168.31a45.88,45.88,0,0,1-15.8,2.86,43.81,43.81,0,0,1-22.3-6.07l-0.61,1.56Q41.3,174,35.92,184.38a143.57,143.57,0,0,1-8,13.71q-9.8,14.75-16,14.75-4.43,0-4.43-6,0-8.93,12.24-30.11a230.71,230.71,0,0,1,13.36-20.91l1-1.39a32.25,32.25,0,0,1-4.67-16.31c0-2,1-4,3-5.81v1.57a30.1,30.1,0,0,0,4.76,16.56l1-1.38q8.6-11.45,11.81-15.18l3.72-4.35a0.43,0.43,0,0,0,.13-0.17,2.3,2.3,0,0,1,.22-0.26,8.88,8.88,0,0,0,.78-1,74.4,74.4,0,0,0,2.26-11.54,94.86,94.86,0,0,0,1-12.93v-2.34a5.12,5.12,0,0,1,1.48-.44,0.6,0.6,0,0,0,.43-0.09h0.26a1.17,1.17,0,0,1,1.23,1.4,4,4,0,0,0-.18,1.21l-0.18,1.64q-0.43,3.9-3.55,18.83l-0.34,1.64q26.46-27,46.15-27,8.08,0,12.93,5.22T121.4,117.73ZM43.3,164.24a31.32,31.32,0,0,1-8.15-8.34,266.75,266.75,0,0,0-17.36,27.86Q11,196.6,11,202.24q0,4.86,3.91,4.86,5,0,12.5-11.11A128.57,128.57,0,0,0,35,182.81q3.46-6.94,7.63-16.92ZM54,132Q49,137.51,42.7,145.84c-1.85,2.44-3.36,4.46-4.52,6.08a27.63,27.63,0,0,0,7,7.81l1-3c1.28-3.58,2.81-8,4.61-13.1Q52.41,138.55,54,132Zm62-10.59q0-8-4.69-13.1c-3.11-3.41-7.32-5.12-12.57-5.12q-12.07,0-27.34,11.72a118.55,118.55,0,0,0-14.66,13.63c-0.46,1.74-.7,2.45-0.7,2.16l-2.52,9c-0.45,1.67-1.21,4.16-2.24,7.46l-4.87,13.62q11.1,7.89,23.42,7.89a41.33,41.33,0,0,0,22.83-7.11,52.13,52.13,0,0,0,16.83-17.49A43.64,43.64,0,0,0,116,121.45Z"/><path class="cls-1" d="M231,137.89c0,0.74-2.58,4-7.8,9.79q-7.26,8.16-23,23-12.17,9.71-19.41,10-8,.35-8.41-9.9c-0.23-5.39,1.17-11.84,4.24-19.31a7.53,7.53,0,0,0-.92.9l-0.35.37a1.9,1.9,0,0,1-.46.38l-7,7.69q-19.17,20.91-32.81,21.5c-5.3.23-8.11-2.79-8.38-9.05Q126,157,143.63,131.3a30.21,30.21,0,0,1,8.5-2.3,123.32,123.32,0,0,0-9.24,15.28q-9.63,18.32-9.21,27.51c0.19,4.26,2,6.32,5.59,6.17q7.13-.31,19-11.35a196.17,196.17,0,0,0,26.29-29.22l5.24,0.74q-10.74,22.84-10.35,32c0.19,4.26,1.84,6.33,5,6.19q10.88-.48,39-32.68c3.91-4.44,6.07-6.68,6.48-6.7a0.92,0.92,0,0,1,1.13.92"/><path class="cls-1" d="M303,134.16c0,0.39-.74,1.56-2.27,3.48q-32.83,40.76-50.22,41.51A13.26,13.26,0,0,1,236,165.87q-0.52-12,12.37-29.82a6.2,6.2,0,0,0,1.12-2.1c0-.49-0.36-0.71-1-0.68a15,15,0,0,0-3.21,1,23,23,0,0,1-6.71,1.64,17.26,17.26,0,0,1-5.47-.72,0.42,0.42,0,0,1-.1.24l-0.13.13-1.94,2.5c-1.53,1.93-2.59,2.9-3.14,2.92a0.81,0.81,0,0,1-1-.81,1.75,1.75,0,0,1,.45-1l0.69-.77a0.9,0.9,0,0,0,.17-0.24,1.56,1.56,0,0,1,.17-0.25l1.71-2.37,1.39-1.75a8.62,8.62,0,0,1-1.53-4.29,15,15,0,0,1,2.43-8.14c1.72-2.94,3.77-4.46,6.08-4.56,2-.09,3.08,1,3.17,3.12s-1.76,6.1-5.55,11.5a16.17,16.17,0,0,0-1.36,1.87,10,10,0,0,0,3,.35q5.91-.26,13-4.19,5.19-2.88,6.39-2.94,2.89-.12,3,2.53a3.45,3.45,0,0,1-1,2.58l-4,5.5q-11.78,16.11-11.31,26.63a10.9,10.9,0,0,0,3.3,7.53,9.68,9.68,0,0,0,7.58,2.87q9.87-.43,27.71-19,8.21-8.57,14.18-16l3.32-4.14,1-1.14a1.66,1.66,0,0,1,.95-0.63,0.91,0.91,0,0,1,1.13.92"/><path class="cls-1" d="M361.55,131.47c0,0.49-1.31,2.35-4,5.62q-17.21,21.09-29.36,31.16c-9.19,7.59-17,11.52-23.56,11.81a14.71,14.71,0,0,1-11.42-4.15,16.17,16.17,0,0,1-4.87-11.34q-0.43-9.78,6.22-21.33a69.76,69.76,0,0,1,14.26-17.43q9.42-8.29,17-8.62,7.86-.34,8.16,6.3,0.54,12.44-17.09,21.91a35,35,0,0,1-15.17,4.53c-0.81,0-2.5,0-5.09-.13a35,35,0,0,0-1.16,9.49,14.18,14.18,0,0,0,4.13,9.86,12.57,12.57,0,0,0,9.87,3.55q11.39-.5,27.27-15.94a223.46,223.46,0,0,0,17.64-19.52l2.76-3.39q0.47-.62,1.54-1.94a3.08,3.08,0,0,1,1.82-1.35,0.85,0.85,0,0,1,1,.92M328.78,126c-0.15-3.3-2-4.87-5.65-4.71q-8,.35-18,12.38a51.05,51.05,0,0,0-7.51,13.53,18.51,18.51,0,0,0,4.61.28q13.66-.6,22.73-12c2.66-3.34,3.94-6.5,3.81-9.48"/><path class="cls-1" d="M453.45,68.81a13.4,13.4,0,1,1-13.35-13A13.1,13.1,0,0,1,453.45,68.81Zm-23.45,0a10.1,10.1,0,0,0,10.17,10.41c5.72,0,9.93-4.61,9.93-10.33s-4.21-10.49-10-10.49A10.13,10.13,0,0,0,430,68.81Zm8,6.83h-3v-13a26.41,26.41,0,0,1,5-.4,8.1,8.1,0,0,1,4.53,1A3.61,3.61,0,0,1,445.82,66a3.34,3.34,0,0,1-2.7,3V69.2c1.27,0.48,2,1.43,2.38,3.18a10,10,0,0,0,1,3.26H443.2a11.2,11.2,0,0,1-1-3.18c-0.24-1.43-1-2.07-2.7-2.07H438v5.25Zm0.08-7.39h1.43c1.67,0,3-.56,3-1.91,0-1.19-.88-2-2.78-2a7.22,7.22,0,0,0-1.67.16v3.74Z"/></svg>