<svg xmlns="http://www.w3.org/2000/svg" viewBox="290.121 1547.75 33.133 24.163">
  <defs>
    <style>
      .cls-1 {
        fill: none;
        stroke: #919191;
        stroke-linecap: round;
        stroke-linejoin: round;
        stroke-miterlimit: 10;
        stroke-width: 0.5px;
      }
    </style>
  </defs>
  <g id="Group_215" data-name="Group 215" transform="translate(-1028 1155)">
    <g id="Group_251" data-name="Group 251" transform="translate(-41.682 -28.231)">
      <rect id="Rectangle_61" data-name="Rectangle 61" class="cls-1" width="10.98" height="15.919" transform="translate(1360.156 428.711)"/>
      <rect id="Rectangle_62" data-name="Rectangle 62" class="cls-1" width="8.391" height="15.919" transform="translate(1371.136 428.711)"/>
      <path id="Path_233" data-name="Path 233" class="cls-1" d="M23.4,26.067,27.524,21.8l4.219,4.267" transform="translate(1347.736 402.643)"/>
      <line id="Line_64" data-name="Line 64" class="cls-1" y1="4.267" x2="3.932" transform="translate(1360.156 424.443)"/>
      <rect id="Rectangle_63" data-name="Rectangle 63" class="cls-1" width="11.172" height="3.261" transform="translate(1364.088 421.231)"/>
    </g>
    <g id="Group_248" data-name="Group 248" transform="translate(1339.006 393)">
      <path id="Path_231" data-name="Path 231" class="cls-1" d="M8.241,6.509A6.21,6.21,0,0,0,11.111,5.49a5.97,5.97,0,0,0,1-.856A1.316,1.316,0,0,0,12.19,2.5a3.3,3.3,0,0,0-2.437-.185V2.159C9.753,1.2,8.581.4,7.131.4s-2.622.771-2.622,1.728v.154a3.345,3.345,0,0,0-2.376.185c-.926.617-.463,1.974,1.049,2.993A6.4,6.4,0,0,0,6.051,6.509Z" transform="translate(-1.293 -0.4)"/>
      <path id="Path_232" data-name="Path 232" class="cls-1" d="M5.3,20.3a14.378,14.378,0,0,0-3.394.71s-1.7.463-1.388,1.7c.123.494.463,2.16,1.049,4.257a9.155,9.155,0,0,1,3.887.37,16.911,16.911,0,0,0-3.579.833c.926,3.147,2.252,6.911,3.949,9.286,0,0,.278.37.586.37h0a.937.937,0,0,0,.586-.339,27.974,27.974,0,0,0,3.3-7.1,14.264,14.264,0,0,0-2.437-.494,7.824,7.824,0,0,1,2.715-.4c.463-1.481.864-2.9,1.172-4.042h0a17.106,17.106,0,0,0-2.1-.4,7,7,0,0,1,2.314-.4c.247-.926.4-1.635.463-1.913.309-1.234-1.357-1.7-1.357-1.7a14.487,14.487,0,0,0-3.548-.74Z" transform="translate(-0.478 -14.161)"/>
    </g>
  </g>
</svg>
