<svg xmlns="http://www.w3.org/2000/svg" viewBox="-806.871 2996.099 19.514 22.65">
  <defs>
    <style>
      .cls-1 {
        fill: #919191;
      }
    </style>
  </defs>
  <g id="Group_204" data-name="Group 204" transform="translate(-806.871 2996.099)">
    <g id="Group_140" data-name="Group 140" transform="translate(0 0)">
      <g id="Group_139" data-name="Group 139">
        <path id="Path_228" data-name="Path 228" class="cls-1" d="M2.729.131A2.14,2.14,0,0,1,3.894.07,6.143,6.143,0,0,1,6.712,1.479,10.029,10.029,0,0,1,8.918,4.573,21.508,21.508,0,0,1,9.9,7.024a16,16,0,0,1,1.869-4.105,9.9,9.9,0,0,1,1.409-1.593A5.3,5.3,0,0,1,14.984.192,3.213,3.213,0,0,1,17.19.223a5.286,5.286,0,0,1,1.5.98,3.2,3.2,0,0,1,.643.8,3.2,3.2,0,0,1,.245,1.777,8.885,8.885,0,0,1-.429,1.991,6.356,6.356,0,0,1-.919,1.746A20.344,20.344,0,0,1,16.669,9.2c-1.011.98-2.053,1.961-3.094,2.941-1.072.98-2.145,1.961-3.217,2.91a3.4,3.4,0,0,1,1.225.276,3.029,3.029,0,0,1,1.164.98,7.539,7.539,0,0,0,1.195,1.562c.306.245.643.429.8.8a1.936,1.936,0,0,1,.123,1.1,6.576,6.576,0,0,1,1.379.429,1.54,1.54,0,0,1,.674.49,1.027,1.027,0,0,1,0,.306,2.06,2.06,0,0,0-1.134-.674,5.619,5.619,0,0,0-.98-.214,2.607,2.607,0,0,1-.184.521,7.138,7.138,0,0,1,1.195.582,1.758,1.758,0,0,1,.643.613c.061.092,0,.214,0,.337a2.025,2.025,0,0,0-.674-.674,9.182,9.182,0,0,0-1.256-.551,4.386,4.386,0,0,1-.95,1.287,1.884,1.884,0,0,1-1.44.429,2.93,2.93,0,0,1-1.624-.735c-.184-.184-.4-.337-.582-.521a3.191,3.191,0,0,1-1.471,1.134,2.052,2.052,0,0,1-1.593-.061,3.623,3.623,0,0,1-1.5-1.532,7.379,7.379,0,0,0-1.011.46,1.709,1.709,0,0,0-.766.7c0-.123-.061-.245,0-.337a1.6,1.6,0,0,1,.49-.521,7.915,7.915,0,0,1,1.134-.582c-.061-.153-.123-.337-.184-.49-.306.061-.613.184-.919.276a1.586,1.586,0,0,0-.827.582c0-.092-.061-.214-.031-.306a.975.975,0,0,1,.46-.4,4.689,4.689,0,0,1,1.256-.429,1.875,1.875,0,0,1,.123-1.225,3.421,3.421,0,0,1,.766-.858A8.632,8.632,0,0,0,7.019,16.4,3.883,3.883,0,0,1,8.367,15.2a1.815,1.815,0,0,1,.98-.184c-1.042-.919-2.083-1.838-3.125-2.788C5.058,11.16,3.894,10.088,2.791,8.954A10.747,10.747,0,0,1,.769,6.289,6.3,6.3,0,0,1,.125,3.96,3.515,3.515,0,0,1,.34,2.092a2.118,2.118,0,0,1,.49-.674A3.908,3.908,0,0,1,2.729.131Zm11.734.95h0a8.1,8.1,0,0,0-2.788,2.7,18.158,18.158,0,0,0-1.9,4.32c0-.214-.092-.429,0-.643a.2.2,0,0,0,.031-.184A17.272,17.272,0,0,0,8.336,4.022,7.835,7.835,0,0,0,5.671,1.3,4.744,4.744,0,0,0,3.4.621,3.854,3.854,0,0,0,1.136,1.632,2.9,2.9,0,0,0,.279,2.7,3.1,3.1,0,0,0,.34,4.6,6.215,6.215,0,0,0,.953,6.074,10.008,10.008,0,0,0,2.913,8.525c.613.613,1.256,1.164,1.869,1.777,1.654,1.562,3.309,3.064,5.024,4.565,1.134-.98,2.267-1.991,3.37-3,1.011-.919,1.991-1.869,3-2.788A12.432,12.432,0,0,0,18.6,6.258,7.669,7.669,0,0,0,19.365,4.3a2.236,2.236,0,0,0-.123-1.777,5.111,5.111,0,0,0-1.134-1.164A3.449,3.449,0,0,0,15.75.621a2.97,2.97,0,0,0-1.287.46ZM9.5,15.6h0a3.256,3.256,0,0,0-1.532.4A15.374,15.374,0,0,0,6.1,18.115a5.678,5.678,0,0,0-.858.858,1.117,1.117,0,0,0-.123.827,8.2,8.2,0,0,1,2.114-.153v.337a7.193,7.193,0,0,0-1.991.123,1.2,1.2,0,0,0,.245.429,7.9,7.9,0,0,1,1.838-.4.629.629,0,0,1,0,.337,7.825,7.825,0,0,0-1.685.337,3.517,3.517,0,0,0,1.348,1.164,1.52,1.52,0,0,0,1.1.061,3.5,3.5,0,0,0,1.624-1.1,1.635,1.635,0,0,1-.153-.766,2.535,2.535,0,0,1-.46-.337.378.378,0,0,1-.123-.245.24.24,0,0,1,.306-.214,1.063,1.063,0,0,1,.582.368,1.491,1.491,0,0,1,.643-.429c.184-.031.276.214.184.368a1.423,1.423,0,0,1-.551.49,2.273,2.273,0,0,1-.153.766,4.015,4.015,0,0,0,1.532,1.042,1.834,1.834,0,0,0,1.5-.092,2.932,2.932,0,0,0,1.1-1.1,6.184,6.184,0,0,0-1.5-.276v-.337a8.213,8.213,0,0,1,1.685.337l.276-.46a9.99,9.99,0,0,0-1.654-.092v-.337a6.927,6.927,0,0,1,1.777.092.722.722,0,0,0-.092-.613,3.562,3.562,0,0,0-.888-.766,4.746,4.746,0,0,1-.919-1.256,2.924,2.924,0,0,0-1.287-1.225,4.069,4.069,0,0,0-1.348-.276A2.545,2.545,0,0,0,9.5,15.6ZM8.244,16.981c.092-.061.214.031.276.123a.932.932,0,0,1,.092.643.688.688,0,0,1-.184.429.2.2,0,0,1-.276-.061.874.874,0,0,1-.123-.674.481.481,0,0,1,.214-.46ZM11,17.1a.225.225,0,0,1,.245-.123.443.443,0,0,1,.214.306,1.1,1.1,0,0,1-.031.7.332.332,0,0,1-.245.245.475.475,0,0,1-.276-.46A1.044,1.044,0,0,1,11,17.1Z" transform="translate(-0.092 -0.012)"/>
        <path id="Path_229" data-name="Path 229" class="cls-1" d="M17.581,5.728a2.523,2.523,0,0,1,1.348-.337,2.329,2.329,0,0,1,1.011.337,2.3,2.3,0,0,1,.735.7,2.083,2.083,0,0,1,.184,1.287A6.845,6.845,0,0,1,20,9.864a21.188,21.188,0,0,1-2.482,3.247,31.94,31.94,0,0,1-2.91,2.849c-.429.368-.888.766-1.348,1.1a3.546,3.546,0,0,1-.735.429,1.973,1.973,0,0,1-.613-.337A19.07,19.07,0,0,1,10.2,15.746c-.613-.551-1.225-1.134-1.808-1.716a27.011,27.011,0,0,1-3.309-3.921A9.441,9.441,0,0,1,4.07,8.21a2.135,2.135,0,0,1-.153-1.225,1.153,1.153,0,0,1,.49-.7,2.884,2.884,0,0,1,1.9-.613,3.275,3.275,0,0,1,1.93.858,8.422,8.422,0,0,1,1.777,2.236,26.918,26.918,0,0,1,2.359,5.453,37.183,37.183,0,0,1,1.838-4.259A14.769,14.769,0,0,1,16.325,6.77a5.176,5.176,0,0,1,1.256-1.042Z" transform="translate(-2.72 -3.74)"/>
      </g>
    </g>
  </g>
</svg>
