<svg xmlns="http://www.w3.org/2000/svg" viewBox="-848.096 2966.142 19.015 20.732">
  <defs>
    <style>
      .cls-1, .cls-2, .cls-3 {
        fill: none;
        stroke: #919191;
        stroke-linecap: round;
      }

      .cls-1, .cls-2 {
        stroke-linejoin: round;
        stroke-miterlimit: 10;
      }

      .cls-2, .cls-3 {
        stroke-width: 0.5px;
      }

      .cls-4 {
        fill: #919191;
      }
    </style>
  </defs>
  <g id="Group_200" data-name="Group 200" transform="translate(-847.845 2966.408)">
    <g id="Group_120" data-name="Group 120" transform="translate(0 0)">
      <path id="Path_200" data-name="Path 200" class="cls-1" d="M45.013,11.18h0L44.751,11h0l-.335-.193L44.4,10.8" transform="translate(-31.727 -7.935)"/>
      <path id="Path_201" data-name="Path 201" class="cls-2" d="M18.361,13.264a5.946,5.946,0,0,1-.5,4.5c-2.746,5.258-9.785,8.266-14.283,6.923C.368,21.238-.012,13.585,3.493,8.824A6.01,6.01,0,0,1,7.261,6.4" transform="translate(-1.015 -4.82)"/>
      <g id="Group_114" data-name="Group 114" transform="translate(9.408 3.654)">
        <g id="Group_113" data-name="Group 113">
          <path id="Path_202" data-name="Path 202" class="cls-2" d="M33.919,13.5l-.088.175a5.787,5.787,0,0,0-.467,3.856l.146.643.613-.146A5.727,5.727,0,0,0,37.395,15.9a.611.611,0,0,0,.117-.175" transform="translate(-33.225 -13.5)"/>
        </g>
      </g>
      <g id="Group_119" data-name="Group 119" transform="translate(5.575)">
        <g id="Group_116" data-name="Group 116">
          <g id="Group_115" data-name="Group 115">
            <path id="Path_203" data-name="Path 203" class="cls-2" d="M27.315,4.148h0A5.449,5.449,0,0,1,20.1,1.49h0A5.449,5.449,0,0,1,27.315,4.148Z" transform="translate(-20.1 -0.991)"/>
          </g>
        </g>
        <g id="Group_118" data-name="Group 118" transform="translate(7.39 3.244)">
          <g id="Group_117" data-name="Group 117">
            <path id="Path_204" data-name="Path 204" class="cls-2" d="M45.4,12.1h0a5.4,5.4,0,0,0,5.55,5.287h0A5.456,5.456,0,0,0,45.4,12.1Z" transform="translate(-45.4 -12.096)"/>
          </g>
        </g>
      </g>
      <path id="Path_230" data-name="Path 230" class="cls-3" d="M1.694,0,0,2.833" transform="translate(13.023 0.236)"/>
    </g>
    <g id="Group_122" data-name="Group 122" transform="translate(2.479 11.862)">
      <g id="Group_121" data-name="Group 121">
        <path id="Path_205" data-name="Path 205" class="cls-4" d="M9.5,42.155v.789a.575.575,0,0,0,.555.555.555.555,0,0,0,.555-.555v-.789a.555.555,0,1,0-1.11,0Z" transform="translate(-9.5 -41.6)"/>
      </g>
    </g>
    <g id="Group_124" data-name="Group 124" transform="translate(7.174 11.679)">
      <g id="Group_123" data-name="Group 123">
        <path id="Path_206" data-name="Path 206" class="cls-4" d="M26.108,41.128l-.38.38a.558.558,0,0,0,.789.789l.38-.38a.558.558,0,0,0-.789-.789Z" transform="translate(-25.575 -40.975)"/>
      </g>
    </g>
    <g id="Group_126" data-name="Group 126" transform="translate(5.399 16.331)">
      <g id="Group_125" data-name="Group 125">
        <path id="Path_207" data-name="Path 207" class="cls-4" d="M20.435,56.9h-.38a.575.575,0,0,0-.555.555.555.555,0,0,0,.555.555h.38a.575.575,0,0,0,.555-.555.555.555,0,0,0-.555-.555Z" transform="translate(-19.5 -56.9)"/>
      </g>
    </g>
    <g id="Group_128" data-name="Group 128" transform="translate(5.408 5.784)">
      <g id="Group_127" data-name="Group 127">
        <path id="Path_208" data-name="Path 208" class="cls-4" d="M20.894,20.825c-.321.117-.643.263-.964.38a.58.58,0,0,0-.38.672.541.541,0,0,0,.672.38c.321-.117.643-.263.964-.38a.58.58,0,0,0,.38-.672.554.554,0,0,0-.672-.38Z" transform="translate(-19.53 -20.794)"/>
      </g>
    </g>
    <g id="Group_130" data-name="Group 130" transform="translate(13.378 11.674)">
      <g id="Group_129" data-name="Group 129">
        <path id="Path_209" data-name="Path 209" class="cls-4" d="M47.482,41.234c-.2.263-.38.526-.584.789a.546.546,0,0,0,.2.759.572.572,0,0,0,.759-.2c.2-.263.38-.526.584-.789a.546.546,0,0,0-.2-.759.572.572,0,0,0-.759.2Z" transform="translate(-46.815 -40.959)"/>
      </g>
    </g>
  </g>
</svg>
