<?xml version="1.0" encoding="UTF-8"?>
<svg width="45px" height="45px" viewBox="0 0 45 45" version="1.1" xmlns="http://www.w3.org/2000/svg" xmlns:xlink="http://www.w3.org/1999/xlink">
    <title>Artboard</title>
    <g id="Artboard" stroke="none" stroke-width="1" fill="none" fill-rule="evenodd">
        <g id="Group" transform="translate(7.000000, 0.300000)" fill="#919191" fill-rule="nonzero">
            <path d="M28.289365,22.631178 C27.243394,20.9350087 27.7663795,18.2211379 28.289365,15.33765 C28.8123506,12.4541622 28.1150365,10.2491421 25.3257803,6.00871883 C22.5365241,1.76829555 18.7012969,-0.436724546 14.5174126,0.0721262467 C9.63621421,0.75059397 6.6726295,3.125231 4.40635884,8.89220666 C2.14008817,14.6591823 3.8833733,15.33765 4.40635884,18.3907548 C4.92934437,21.4438596 3.36038776,21.6134765 1.61710264,24.4969643 C-0.126182486,27.3804521 0.571131563,29.0766215 1.26844561,30.4335568 C1.96575966,31.9601092 2.83740222,32.1297263 2.83740222,32.638577 C2.66307371,33.1474278 1.96575966,35.6916817 1.79143115,36.8790003 C1.61710264,38.0663188 1.61710264,38.4055527 1.96575966,39.4232543 C2.4887452,40.4409558 7.02128652,42.306742 9.4618857,42.8155928 C11.7281564,43.3244437 14.343084,42.8155928 14.343084,42.8155928 C14.343084,42.8155928 15.5633836,44.3421452 17.8296543,44.1725283 C19.9215964,44.0029114 20.444582,42.6459759 20.444582,42.6459759 C20.793239,42.476359 23.4081667,42.1371251 25.5001088,41.4586573 C27.592051,40.7801897 29.1610076,39.7624881 29.8583216,39.4232543 C30.3813072,39.0840203 30.0326502,37.8967019 29.8583216,36.2005326 C29.6839931,34.8435971 28.9866791,32.9778109 28.8123506,32.638577 C29.3353361,32.1297263 29.8583216,31.4512585 30.9042927,29.2462384 C31.7759353,26.7019845 29.3353361,24.3273474 28.289365,22.631178 Z M12.7741274,9.90990824 C14.6917411,8.38335586 15.7377121,6.85680349 15.7377121,6.85680349 C15.7377121,6.85680349 16.7836832,8.21373893 18.7012969,9.90990824 C20.6189105,11.4364606 23.2338382,13.4718638 23.4081667,14.8287992 C23.4081667,14.8287992 22.3621956,18.3907548 20.444582,20.0869241 C18.5269683,21.7830934 17.6553258,22.970412 15.9120407,22.8007951 L15.7377121,22.8007951 C13.8200985,22.970412 13.1227845,21.9527104 11.2051708,20.0869241 C9.28755718,18.2211379 8.0672576,14.8287992 8.0672576,14.8287992 C8.24158611,13.4718638 10.8565138,11.4364606 12.7741274,9.90990824 Z M28.4636935,32.9778109 C28.9866791,34.8435971 29.3353361,38.0663188 29.3353361,38.7447865 C29.3353361,39.2536374 28.8123506,39.5928712 25.6744373,40.7801897 C22.3621956,41.9675082 20.444582,42.1371251 20.444582,42.1371251 C20.444582,42.1371251 20.793239,41.2890404 20.2702535,40.2713389 C19.7472679,39.2536374 18.5269683,38.7447865 18.5269683,38.7447865 C19.3986109,38.2359357 19.5729394,38.2359357 21.141896,37.387851 C22.7108526,36.5397664 23.7568237,36.2005326 24.2798092,35.8612986 C24.8027948,35.5220648 26.5460799,35.5220648 25.8487659,35.3524479 C25.1514518,35.1828309 23.9311522,35.5220648 23.9311522,35.5220648 C24.6284663,33.9955125 24.4541378,32.1297263 23.9311522,31.4512585 C23.4081667,30.7727908 22.5365241,29.2462384 19.5729394,29.5854722 C16.6093547,29.7550891 16.2606977,32.638577 16.2606977,32.638577 C15.0403981,32.1297263 13.8200985,31.7904923 11.3794993,32.4689601 C8.93890016,33.1474278 8.0672576,35.1828309 8.0672576,35.1828309 C8.0672576,35.1828309 7.89292908,35.3524479 8.41591462,33.3170447 C8.93890016,31.2816415 9.81054272,28.9070045 9.63621421,29.2462384 C9.4618857,29.5854722 8.93890016,30.4335568 8.24158611,32.2993432 C7.54427206,34.1651294 7.36994355,36.0309155 7.02128652,36.0309155 C6.6726295,36.0309155 5.62665842,36.0309155 5.97531545,36.2005326 C6.32397247,36.3701495 7.71860057,36.8790003 9.63621421,37.727085 C11.3794993,38.4055527 13.8200985,39.932105 13.8200985,39.932105 C14.5174126,39.0840203 15.0403981,38.2359357 17.1323402,38.7447865 C19.0499539,39.0840203 20.095925,40.6105727 20.095925,41.4586573 C20.095925,42.476359 19.3986109,43.8332944 17.4809973,43.8332944 C15.5633836,43.8332944 14.5174126,42.476359 14.5174126,42.476359 C12.5997989,42.6459759 10.1591997,42.8155928 7.54427206,41.7978913 C5.2780014,40.9498066 3.70904479,40.2713389 2.83740222,39.7624881 C1.96575966,39.2536374 2.14008817,38.0663188 2.4887452,36.2005326 C2.83740222,34.3347463 3.36038776,33.3170447 3.70904479,32.2993432 C4.05770181,31.2816415 4.92934437,29.4158553 5.80098694,27.8893029 C6.49830098,26.3627505 6.84695801,26.3627505 7.71860057,26.0235167 C8.76457165,25.5146659 12.9484559,23.9881135 13.297113,23.8184966 C13.64577,23.6488797 13.64577,22.631178 13.64577,22.631178 C13.64577,22.631178 14.343084,23.3096458 16.0863692,23.3096458 C17.6553258,23.3096458 18.3526398,22.631178 18.3526398,22.631178 L18.3526398,22.8007951 C18.5269683,23.6488797 19.7472679,23.3096458 21.8392101,24.3273474 C23.9311522,25.345049 24.4541378,25.005815 25.8487659,27.3804521 C27.243394,29.5854722 28.4636935,32.9778109 28.4636935,32.9778109 C28.4636935,32.9778109 28.6380221,32.8081939 28.6380221,32.8081939 L28.4636935,32.9778109 Z M17.8296543,34.5043633 C17.1323402,33.3170447 16.4350262,32.638577 16.4350262,32.638577 C16.4350262,32.638577 16.4350262,31.4512585 18.3526398,30.4335568 C20.2702535,29.4158553 21.6648816,30.094323 22.5365241,30.6031739 C23.4081667,31.1120246 23.9311522,32.1297263 23.7568237,33.8258956 C23.5824952,35.5220648 23.0595097,35.8612986 21.8392101,36.3701495 C20.6189105,36.8790003 19.0499539,38.0663188 19.0499539,38.0663188 C19.0499539,36.2005326 18.5269683,35.6916817 17.8296543,34.5043633 Z" id="Shape"></path>
            <path d="M17.1323402,44.3421452 C15.3890551,44.3421452 14.343084,43.3244437 13.994427,42.9852097 C13.4714415,43.1548268 11.2051708,43.4940606 9.11322867,42.9852097 C6.84695801,42.476359 2.14008817,40.7801897 1.61710264,39.5928712 C1.0941171,38.5751696 1.26844561,38.0663188 1.26844561,37.0486172 L1.26844561,36.8790003 C1.44277413,36.0309155 1.79143115,34.3347463 2.14008817,33.3170447 C2.31441669,32.9778109 2.31441669,32.638577 2.31441669,32.638577 C2.31441669,32.638577 2.14008817,32.4689601 1.96575966,32.2993432 C1.61710264,31.9601092 1.0941171,31.6208754 0.745460076,30.7727908 C0.048146026,29.2462384 -0.649168024,27.3804521 1.0941171,24.4969643 C1.61710264,23.4792627 2.31441669,22.8007951 2.83740222,22.2919442 C3.70904479,21.2742427 4.40635884,20.5957749 4.05770181,18.7299886 C3.8833733,17.881904 3.70904479,17.3730532 3.53471627,16.6945855 C3.01173074,14.9984162 2.4887452,13.3022469 4.05770181,9.06182359 C6.32397247,3.29484794 9.28755718,0.58097704 14.343084,0.0721262467 C18.5269683,-0.436724546 22.5365241,1.76829555 25.3257803,6.00871883 C28.289365,10.418759 28.9866791,12.6237791 28.289365,15.5072669 C27.7663795,18.051521 27.243394,20.9350087 28.289365,22.631178 L28.289365,22.631178 C28.4636935,22.970412 28.8123506,23.3096458 28.9866791,23.8184966 C30.0326502,25.345049 31.4272783,27.3804521 30.3813072,29.4158553 C29.3353361,31.6208754 28.8123506,32.2993432 28.4636935,32.8081939 C28.6380221,33.4866616 29.3353361,35.013214 29.5096646,36.3701495 L29.6839931,36.8790003 C29.8583216,38.4055527 30.0326502,39.4232543 29.5096646,39.7624881 C28.8123506,40.101722 27.243394,41.1194235 25.1514518,41.7978913 C23.5824952,42.306742 21.8392101,42.6459759 20.793239,42.8155928 C20.444582,42.8155928 20.2702535,42.9852097 20.095925,42.9852097 C19.9215964,43.3244437 19.2242824,44.3421452 17.3066688,44.5117621 C17.4809973,44.3421452 17.3066688,44.3421452 17.1323402,44.3421452 Z M14.5174126,42.1371251 L14.5174126,42.1371251 C14.5174126,42.306742 15.5633836,43.6636775 17.4809973,43.6636775 C19.2242824,43.6636775 19.9215964,42.476359 19.9215964,41.4586573 C19.9215964,40.6105727 19.0499539,39.2536374 17.1323402,38.9144034 C15.2147266,38.5751696 14.6917411,39.2536374 14.1687555,40.101722 L13.8200985,40.2713389 L13.64577,40.101722 C13.64577,40.101722 11.2051708,38.5751696 9.4618857,37.8967019 C7.71860057,37.2182341 6.14964396,36.5397664 5.80098694,36.3701495 C5.62665842,36.3701495 5.62665842,36.2005326 5.62665842,36.0309155 C5.62665842,35.8612986 5.80098694,35.8612986 6.32397247,35.8612986 C6.49830098,35.8612986 6.84695801,35.8612986 6.84695801,35.8612986 C7.02128652,35.8612986 7.02128652,35.1828309 7.19561503,34.6739802 C7.36994355,33.9955125 7.54427206,33.1474278 7.89292908,32.2993432 C8.59024313,30.6031739 8.93890016,29.7550891 9.28755718,29.2462384 L9.4618857,28.9070045 L9.63621421,28.9070045 C9.81054272,28.9070045 9.81054272,28.9070045 9.4618857,29.9247061 C9.11322867,30.7727908 8.76457165,32.1297263 8.41591462,33.3170447 C8.24158611,33.6562785 8.24158611,33.9955125 8.24158611,34.1651294 C8.76457165,33.4866616 9.63621421,32.638577 11.2051708,32.2993432 C13.64577,31.6208754 14.8660696,31.7904923 15.9120407,32.2993432 C16.0863692,31.6208754 16.7836832,29.5854722 19.3986109,29.4158553 C22.3621956,29.0766215 23.4081667,30.4335568 23.9311522,31.2816415 L23.9311522,31.2816415 C24.4541378,32.1297263 24.6284663,33.8258956 24.1054807,35.1828309 C24.6284663,35.1828309 25.3257803,35.013214 25.6744373,35.013214 C25.8487659,35.013214 26.0230944,35.013214 26.0230944,35.1828309 C26.0230944,35.3524479 25.8487659,35.3524479 25.3257803,35.5220648 C24.9771233,35.5220648 24.4541378,35.6916817 24.2798092,35.8612986 C24.1054807,36.0309155 23.7568237,36.0309155 23.5824952,36.2005326 C23.0595097,36.3701495 22.1878671,36.8790003 21.141896,37.387851 C20.6189105,37.727085 20.095925,37.8967019 19.9215964,38.0663188 C19.5729394,38.2359357 19.2242824,38.4055527 18.8756254,38.5751696 C19.3986109,38.7447865 19.9215964,39.2536374 20.2702535,40.101722 C20.6189105,40.7801897 20.6189105,41.4586573 20.444582,41.7978913 C21.141896,41.6282744 22.8851811,41.2890404 25.3257803,40.4409558 C28.4636935,39.2536374 28.9866791,39.0840203 28.9866791,38.5751696 C28.9866791,37.8967019 28.6380221,34.6739802 28.1150365,32.9778109 L27.940708,33.1474278 L27.7663795,32.8081939 C27.7663795,32.8081939 26.7204084,29.5854722 25.3257803,27.3804521 C24.2798092,25.6842828 23.7568237,25.5146659 22.3621956,25.005815 C22.0135386,24.8361981 21.6648816,24.6665812 21.3162245,24.4969643 C20.444582,24.1577304 19.7472679,23.9881135 19.2242824,23.8184966 C18.5269683,23.6488797 17.8296543,23.4792627 17.8296543,22.970412 C17.4809973,23.1400289 16.7836832,23.4792627 15.5633836,23.4792627 C14.5174126,23.4792627 13.8200985,23.1400289 13.4714415,22.970412 C13.4714415,23.3096458 13.297113,23.8184966 12.9484559,23.8184966 C12.5997989,23.9881135 8.41591462,25.5146659 7.36994355,26.0235167 L7.19561503,26.0235167 C6.32397247,26.3627505 6.14964396,26.5323674 5.45232991,27.8893029 C4.58068735,29.4158553 3.70904479,31.2816415 3.36038776,32.2993432 L3.18605925,32.8081939 C2.83740222,33.6562785 2.4887452,34.8435971 2.14008817,36.3701495 L2.14008817,36.7093833 C1.79143115,38.4055527 1.79143115,39.2536374 2.4887452,39.7624881 C3.36038776,40.2713389 4.92934437,40.9498066 7.19561503,41.7978913 C10.1591997,42.6459759 12.5997989,42.306742 14.5174126,42.1371251 L14.5174126,42.1371251 Z M20.095925,42.476359 C19.9215964,42.8155928 19.7472679,43.1548268 19.5729394,43.3244437 C19.9215964,42.9852097 20.095925,42.6459759 20.095925,42.6459759 L20.095925,42.476359 L20.095925,42.476359 C20.2702535,42.476359 20.6189105,42.476359 20.9675675,42.306742 C22.0135386,42.1371251 23.7568237,41.7978913 25.3257803,41.2890404 C26.7204084,40.7801897 27.940708,40.101722 28.8123506,39.7624881 C28.289365,40.101722 27.243394,40.4409558 25.8487659,40.9498066 C22.5365241,42.1371251 20.6189105,42.476359 20.444582,42.476359 L20.095925,42.476359 Z M2.31441669,39.7624881 C3.36038776,40.7801897 7.02128652,42.1371251 9.28755718,42.6459759 C11.2051708,42.9852097 13.1227845,42.8155928 13.8200985,42.6459759 C12.0768134,42.8155928 9.81054272,42.9852097 7.19561503,41.9675082 C5.10367289,41.1194235 3.53471627,40.4409558 2.31441669,39.7624881 C2.4887452,39.932105 2.4887452,39.7624881 2.31441669,39.7624881 Z M19.5729394,39.7624881 C19.7472679,39.932105 19.7472679,40.101722 19.9215964,40.2713389 C19.9215964,40.101722 19.7472679,39.932105 19.5729394,39.7624881 Z M6.6726295,36.3701495 C7.36994355,36.7093833 8.41591462,37.0486172 9.63621421,37.5574679 C11.2051708,38.0663188 13.1227845,39.2536374 13.8200985,39.5928712 C14.343084,38.7447865 15.2147266,38.0663188 17.1323402,38.4055527 C17.4809973,38.4055527 17.8296543,38.5751696 18.1783113,38.7447865 L18.3526398,38.5751696 C18.5269683,38.4055527 18.7012969,38.4055527 18.8756254,38.2359357 L18.8756254,37.8967019 C18.8756254,36.5397664 18.5269683,35.8612986 18.0039828,35.013214 C17.8296543,34.8435971 17.8296543,34.6739802 17.6553258,34.5043633 L17.6553258,34.5043633 C16.9580117,33.4866616 16.4350262,32.8081939 16.2606977,32.8081939 L16.2606977,32.8081939 L15.9120407,32.638577 C14.6917411,32.1297263 13.64577,31.7904923 11.2051708,32.4689601 C8.76457165,33.1474278 7.89292908,35.013214 7.89292908,35.013214 L7.89292908,35.013214 L7.71860057,35.1828309 L7.54427206,35.013214 C7.54427206,35.013214 7.36994355,34.8435971 7.54427206,34.5043633 C7.36994355,35.3524479 7.19561503,35.8612986 6.84695801,36.0309155 C6.84695801,36.3701495 6.84695801,36.3701495 6.6726295,36.3701495 Z M29.3353361,35.6916817 C29.5096646,37.0486172 29.6839931,38.2359357 29.6839931,38.5751696 C29.6839931,38.9144034 29.5096646,39.2536374 28.9866791,39.5928712 C29.1610076,39.4232543 29.3353361,39.4232543 29.5096646,39.2536374 C29.8583216,39.0840203 29.6839931,38.0663188 29.5096646,36.7093833 L29.3353361,36.2005326 C29.3353361,36.0309155 29.3353361,35.8612986 29.3353361,35.6916817 Z M2.31441669,35.013214 C2.14008817,35.6916817 1.96575966,36.5397664 1.79143115,37.0486172 L1.79143115,37.2182341 C1.61710264,37.8967019 1.61710264,38.2359357 1.79143115,38.7447865 C1.79143115,38.0663188 1.79143115,37.387851 1.96575966,36.5397664 L1.96575966,36.2005326 C2.14008817,35.6916817 2.14008817,35.3524479 2.31441669,35.013214 Z M22.0135386,36.7093833 C21.3162245,37.0486172 20.444582,37.5574679 19.7472679,37.8967019 C20.095925,37.727085 20.444582,37.5574679 20.9675675,37.2182341 C21.3162245,37.0486172 21.6648816,36.8790003 22.0135386,36.7093833 Z M16.6093547,32.638577 C16.7836832,32.8081939 17.4809973,33.4866616 18.0039828,34.3347463 L18.0039828,34.3347463 C18.1783113,34.5043633 18.1783113,34.6739802 18.3526398,34.8435971 C18.8756254,35.6916817 19.2242824,36.2005326 19.2242824,37.5574679 C19.7472679,37.2182341 20.9675675,36.5397664 21.8392101,36.2005326 C22.8851811,35.6916817 23.4081667,35.5220648 23.5824952,33.8258956 C23.7568237,32.2993432 23.2338382,31.2816415 22.3621956,30.7727908 C21.4905531,30.2639399 20.2702535,29.7550891 18.5269683,30.6031739 C16.9580117,31.4512585 16.7836832,32.4689601 16.6093547,32.638577 Z M23.4081667,31.4512585 C23.7568237,31.9601092 24.1054807,32.8081939 23.9311522,33.9955125 C23.7568237,35.5220648 23.4081667,36.0309155 22.5365241,36.5397664 C22.8851811,36.3701495 23.2338382,36.2005326 23.4081667,36.2005326 C23.5824952,36.2005326 23.7568237,36.0309155 23.7568237,36.0309155 L23.4081667,36.2005326 L23.5824952,35.8612986 C24.2798092,34.3347463 24.1054807,32.638577 23.5824952,31.9601092 L23.5824952,31.9601092 C23.5824952,31.6208754 23.5824952,31.4512585 23.4081667,31.4512585 Z M15.7377121,0.241743177 C15.3890551,0.241743177 15.0403981,0.241743177 14.5174126,0.241743177 C9.63621421,0.920210901 6.6726295,3.46446487 4.58068735,9.06182359 C3.01173074,13.3022469 3.53471627,14.8287992 4.05770181,16.5249686 C4.23203032,17.2034362 4.40635884,17.712287 4.58068735,18.5603717 C4.92934437,20.7653918 4.23203032,21.4438596 3.36038776,22.4615611 C2.83740222,22.970412 2.31441669,23.6488797 1.79143115,24.4969643 C0.222474538,27.2108352 0.571131563,28.7373876 1.44277413,30.2639399 C1.79143115,31.1120246 2.31441669,31.4512585 2.4887452,31.7904923 C2.83740222,32.1297263 3.01173074,32.2993432 3.01173074,32.638577 C3.01173074,32.8081939 2.83740222,32.9778109 2.83740222,33.3170447 C2.83740222,33.6562785 2.66307371,33.9955125 2.4887452,34.3347463 C2.66307371,33.6562785 3.01173074,32.9778109 3.18605925,32.4689601 L3.36038776,31.9601092 C3.70904479,30.9424077 4.58068735,29.0766215 5.45232991,27.5500691 C6.14964396,26.1931336 6.49830098,26.0235167 7.36994355,25.5146659 L7.54427206,25.5146659 C8.59024313,25.005815 12.7741274,23.4792627 13.1227845,23.3096458 C13.297113,23.3096458 13.297113,22.8007951 13.297113,22.4615611 L13.297113,22.4615611 C12.7741274,22.1223273 12.2511419,21.6134765 11.5538278,20.9350087 C11.3794993,20.7653918 11.0308423,20.5957749 10.8565138,20.256541 C8.93890016,18.3907548 7.89292908,14.9984162 7.89292908,14.8287992 L7.89292908,14.8287992 L7.89292908,14.8287992 C8.0672576,13.3022469 10.5078568,11.4364606 12.5997989,9.74029132 C14.5174126,8.21373893 15.5633836,6.85680349 15.5633836,6.85680349 L15.7377121,6.68718656 L15.9120407,6.85680349 C15.9120407,6.85680349 16.9580117,8.21373893 18.8756254,9.74029132 C20.9675675,11.4364606 23.4081667,13.3022469 23.5824952,14.8287992 L23.5824952,14.8287992 L23.5824952,14.8287992 C23.5824952,14.9984162 22.5365241,18.3907548 20.6189105,20.256541 C20.444582,20.426158 20.095925,20.7653918 19.9215964,20.9350087 C19.3986109,21.4438596 18.8756254,21.9527104 18.5269683,22.2919442 L18.7012969,22.8007951 C18.7012969,23.1400289 19.0499539,23.3096458 19.9215964,23.4792627 C20.444582,23.6488797 21.3162245,23.8184966 22.1878671,24.1577304 C22.5365241,24.3273474 23.0595097,24.4969643 23.2338382,24.6665812 C24.4541378,25.1754321 25.1514518,25.5146659 26.3717514,27.2108352 C27.592051,29.0766215 28.4636935,31.6208754 28.8123506,32.4689601 C29.3353361,31.9601092 29.6839931,31.4512585 30.7299642,29.2462384 C31.6016068,27.3804521 30.3813072,25.6842828 29.3353361,23.9881135 C28.9866791,23.6488797 28.8123506,23.1400289 28.6380221,22.8007951 L28.6380221,22.8007951 C27.592051,20.9350087 28.1150365,18.051521 28.6380221,15.33765 C29.1610076,12.6237791 28.4636935,10.418759 25.6744373,6.17833576 C22.7108526,2.27714635 19.3986109,0.241743177 15.7377121,0.241743177 Z M19.9215964,29.9247061 C19.7472679,29.9247061 19.5729394,29.9247061 19.3986109,29.9247061 C17.8296543,30.094323 16.9580117,30.9424077 16.6093547,31.6208754 C16.9580117,31.2816415 17.4809973,30.7727908 18.1783113,30.2639399 C18.8756254,30.094323 19.3986109,29.9247061 19.9215964,29.9247061 Z M21.3162245,29.9247061 C21.8392101,30.094323 22.1878671,30.2639399 22.5365241,30.4335568 C22.5365241,30.4335568 22.7108526,30.6031739 22.7108526,30.6031739 C22.5365241,30.4335568 22.0135386,30.094323 21.3162245,29.9247061 Z M8.24158611,14.8287992 C8.41591462,15.1680331 9.28755718,18.3907548 11.2051708,19.9173072 C11.3794993,20.0869241 11.7281564,20.426158 11.9024849,20.5957749 C13.297113,21.9527104 14.1687555,22.631178 15.7377121,22.631178 L15.9120407,22.631178 C17.4809973,22.631178 18.1783113,21.9527104 19.7472679,20.5957749 C19.9215964,20.426158 20.2702535,20.0869241 20.444582,19.9173072 C22.1878671,18.2211379 23.2338382,15.1680331 23.4081667,14.8287992 C23.2338382,13.4718638 20.6189105,11.6060776 18.8756254,10.0795252 C17.3066688,8.89220666 16.4350262,7.70488814 16.0863692,7.36565427 C15.7377121,7.87450507 14.6917411,8.89220666 13.297113,10.0795252 L13.297113,10.0795252 C11.0308423,11.6060776 8.41591462,13.6414807 8.24158611,14.8287992 Z" id="Shape"></path>
        </g>
    </g>
</svg>