<svg width="372" height="176" viewBox="0 0 372 176" fill="none" xmlns="http://www.w3.org/2000/svg">
<rect width="176" height="176" rx="18" fill="black"/>
<path d="M55.5388 110.43C49.2652 110.822 43.8738 108.567 43.8738 99.647V75.5328H55.3427V67.5927H43.8738V56.8099H35.6396V99.647C35.6396 112.488 43.7758 119.448 55.5388 118.076V110.43Z" fill="white"/>
<path d="M64.2738 88.08V118.076H72.5079V87.884C72.5079 78.1795 78.6835 73.4742 88.388 74.3565V66.6125C75.1546 65.0441 64.2738 72.7881 64.2738 88.08Z" fill="white"/>
<path d="M130.929 67.5927V98.1766C130.929 105.725 125.93 111.214 118.186 111.214C110.344 111.214 105.345 105.725 105.345 98.1766V67.5927H97.1107V98.1766C97.1107 110.92 106.325 119.252 118.186 119.252C123.676 119.252 127.891 117.488 130.929 114.253V121.801C130.929 129.545 125.93 134.838 118.186 134.838C111.716 134.838 107.599 131.603 105.835 126.212H97.4048C99.3653 136.603 107.599 142.876 118.186 142.876C130.047 142.876 139.262 135.034 139.262 121.801V67.5927H130.929Z" fill="white"/>
<path d="M204.063 87.0996C204.063 79.5517 209.063 74.0622 216.905 74.0622C224.649 74.0622 229.648 79.5517 229.648 87.0996V118.076H237.882V87.3937C237.882 74.6504 228.962 66.3182 216.905 66.3182C204.847 66.3182 195.829 74.6504 195.829 87.3937V118.076H204.063V87.0996Z" fill="black"/>
<path d="M270.186 66.3182C255.874 66.3182 244.797 78.2773 244.797 92.9811C244.797 107.489 255.874 119.35 270.186 119.35C284.596 119.35 295.574 107.489 295.574 92.9811C295.574 78.2773 284.596 66.3182 270.186 66.3182ZM270.186 111.312C260.873 111.312 253.228 103.078 253.228 92.9811C253.228 82.6885 260.873 74.2583 270.186 74.2583C279.596 74.2583 287.242 82.6885 287.242 92.9811C287.242 103.078 279.596 111.312 270.186 111.312Z" fill="black"/>
<path d="M371.629 67.5926H363.297V99.9409C363.297 106.411 358.984 111.214 352.318 111.214C345.652 111.214 341.339 106.411 341.339 99.9409V67.5926H333.007V99.9409C333.007 106.411 328.694 111.214 322.028 111.214C315.363 111.214 311.049 106.411 311.049 99.9409V67.5926H302.717V99.9409C302.717 110.92 310.657 119.252 322.028 119.252C328.89 119.252 334.183 116.115 337.124 110.92C340.163 116.115 345.456 119.252 352.318 119.252C363.787 119.252 371.629 110.92 371.629 99.9409V67.5926Z" fill="black"/>
</svg>
