<svg xmlns="http://www.w3.org/2000/svg" viewBox="0 0 45 45"><defs><style>.cls-1{fill:#bfbfbf;}</style></defs><title>Asset 1</title><g id="Layer_2" data-name="Layer 2"><g id="_ÎÓÈ_1" data-name="—ÎÓÈ_1"><path class="cls-1" d="M4.68,36.24H40.32a22.83,22.83,0,0,0,3.11-5.46H1.57A22.83,22.83,0,0,0,4.68,36.24Z"/><path class="cls-1" d="M22.5,45a22.43,22.43,0,0,0,11.6-3.22H10.9A22.43,22.43,0,0,0,22.5,45Z"/><path class="cls-1" d="M23.47,3.21H34.11A20.34,20.34,0,0,0,23.47,0Z"/><path class="cls-1" d="M23.47,14.22h20a22.31,22.31,0,0,0-3.11-5.46H23.47Z"/><path class="cls-1" d="M44.84,19.77H23.47v5.46H44.83A22.52,22.52,0,0,0,45,22.49,24.38,24.38,0,0,0,44.84,19.77Z"/><path class="cls-1" d="M0,22.49a24.74,24.74,0,0,0,.16,2.74H21.55V0C9.63.12,0,10.14,0,22.49Zm8.52-1.72L5.88,18.84,3.24,20.77l1-3.12L1.57,15.73h3.3l1-3.12,1,3.12h3.29L7.51,17.65ZM9.23,7.54h3.3l1-3.12,1,3.12h3.3L15.17,9.45l1,3.12-2.64-1.93-2.65,1.93,1-3.12Zm9.65,15.84-2.64-1.93-2.65,1.93,1-3.12-2.67-1.91h3.3l1-3.12,1,3.12h3.3l-2.67,1.91Z"/></g></g></svg>